<svg width="173" height="36" viewBox="0 0 173 36" fill="none" xmlns="http://www.w3.org/2000/svg">
<rect width="173" height="36" fill="black"/>
<path d="M22.624 25.416H23.056V10.2H26.224V27H20.032L18.064 11.784H17.632V27H14.464V10.2H20.656L22.624 25.416ZM29.7833 24.12H33.8153V17.976H30.0713V15.096H36.8393V24.12H40.2953V27H29.7833V24.12ZM37.5833 11.568C37.5833 11.888 37.5193 12.192 37.3913 12.48C37.2793 12.752 37.1193 12.992 36.9113 13.2C36.7033 13.392 36.4553 13.552 36.1673 13.68C35.8953 13.792 35.6073 13.848 35.3033 13.848C34.9833 13.848 34.6873 13.792 34.4153 13.68C34.1433 13.552 33.9033 13.392 33.6953 13.2C33.4873 12.992 33.3193 12.752 33.1913 12.48C33.0793 12.192 33.0233 11.888 33.0233 11.568C33.0233 11.248 33.0793 10.952 33.1913 10.68C33.3193 10.392 33.4873 10.152 33.6953 9.96C33.9033 9.752 34.1433 9.592 34.4153 9.48C34.6873 9.352 34.9833 9.288 35.3033 9.288C35.6073 9.288 35.8953 9.352 36.1673 9.48C36.4553 9.592 36.7033 9.752 36.9113 9.96C37.1193 10.152 37.2793 10.392 37.3913 10.68C37.5193 10.952 37.5833 11.248 37.5833 11.568ZM54.9426 24.12V27H44.5746V21.96L52.0626 18.312V17.88H44.7186V15.096H54.6546V19.992L47.1666 23.688V24.12H54.9426ZM62.0299 27H59.0059V10.2H62.0299V17.016H62.4619C62.7659 16.296 63.2139 15.744 63.8059 15.36C64.3979 14.96 65.1259 14.76 65.9899 14.76C66.5819 14.76 67.1259 14.856 67.6219 15.048C68.1179 15.24 68.5499 15.528 68.9179 15.912C69.2859 16.296 69.5739 16.792 69.7819 17.4C69.9899 17.992 70.0939 18.696 70.0939 19.512V27H67.0699V20.232C67.0699 19.384 66.8619 18.72 66.4459 18.24C66.0459 17.744 65.4619 17.496 64.6939 17.496C63.7979 17.496 63.1259 17.8 62.6779 18.408C62.2459 19 62.0299 19.8 62.0299 20.808V27ZM82.1493 25.272H81.7173C81.5893 25.544 81.4293 25.808 81.2373 26.064C81.0613 26.304 80.8213 26.52 80.5173 26.712C80.2293 26.904 79.8773 27.056 79.4613 27.168C79.0613 27.28 78.5733 27.336 77.9973 27.336C77.2613 27.336 76.5733 27.208 75.9333 26.952C75.3093 26.68 74.7573 26.288 74.2773 25.776C73.8133 25.248 73.4453 24.608 73.1733 23.856C72.9173 23.104 72.7893 22.24 72.7893 21.264V20.832C72.7893 19.872 72.9253 19.016 73.1973 18.264C73.4853 17.512 73.8693 16.88 74.3493 16.368C74.8453 15.84 75.4133 15.44 76.0533 15.168C76.7093 14.896 77.3973 14.76 78.1172 14.76C79.0773 14.76 79.8373 14.944 80.3973 15.312C80.9573 15.664 81.3973 16.168 81.7173 16.824H82.1493V15.096H85.1733V29.928C85.1733 30.472 84.9973 30.92 84.6453 31.272C84.3093 31.624 83.8693 31.8 83.3253 31.8H75.3092V28.92H81.5013C81.9333 28.92 82.1493 28.68 82.1493 28.2V25.272ZM78.9813 24.456C79.9253 24.456 80.6853 24.16 81.2613 23.568C81.8533 22.96 82.1493 22.168 82.1493 21.192V20.904C82.1493 19.928 81.8533 19.144 81.2613 18.552C80.6853 17.944 79.9253 17.64 78.9813 17.64C78.0373 17.64 77.2693 17.936 76.6773 18.528C76.1013 19.104 75.8133 19.896 75.8133 20.904V21.192C75.8133 22.2 76.1013 23 76.6773 23.592C77.2693 24.168 78.0373 24.456 78.9813 24.456ZM100.013 21.192C100.013 22.184 99.8446 23.064 99.5086 23.832C99.1726 24.584 98.7166 25.224 98.1406 25.752C97.5646 26.264 96.9006 26.656 96.1486 26.928C95.4126 27.2 94.6366 27.336 93.8206 27.336C93.0046 27.336 92.2206 27.2 91.4686 26.928C90.7326 26.656 90.0766 26.264 89.5006 25.752C88.9246 25.224 88.4686 24.584 88.1326 23.832C87.7966 23.064 87.6286 22.184 87.6286 21.192V20.904C87.6286 19.928 87.7966 19.064 88.1326 18.312C88.4686 17.544 88.9246 16.896 89.5006 16.368C90.0766 15.84 90.7326 15.44 91.4686 15.168C92.2206 14.896 93.0046 14.76 93.8206 14.76C94.6366 14.76 95.4126 14.896 96.1486 15.168C96.9006 15.44 97.5646 15.84 98.1406 16.368C98.7166 16.896 99.1726 17.544 99.5086 18.312C99.8446 19.064 100.013 19.928 100.013 20.904V21.192ZM93.8206 24.456C94.2526 24.456 94.6606 24.384 95.0446 24.24C95.4286 24.096 95.7646 23.888 96.0526 23.616C96.3406 23.344 96.5646 23.016 96.7246 22.632C96.9006 22.232 96.9886 21.784 96.9886 21.288V20.808C96.9886 20.312 96.9006 19.872 96.7246 19.488C96.5646 19.088 96.3406 18.752 96.0526 18.48C95.7646 18.208 95.4286 18 95.0446 17.856C94.6606 17.712 94.2526 17.64 93.8206 17.64C93.3886 17.64 92.9806 17.712 92.5966 17.856C92.2126 18 91.8766 18.208 91.5886 18.48C91.3006 18.752 91.0686 19.088 90.8926 19.488C90.7326 19.872 90.6526 20.312 90.6526 20.808V21.288C90.6526 21.784 90.7326 22.232 90.8926 22.632C91.0686 23.016 91.3006 23.344 91.5886 23.616C91.8766 23.888 92.2126 24.096 92.5966 24.24C92.9806 24.384 93.3886 24.456 93.8206 24.456ZM108.564 24.456C109.172 24.456 109.668 24.368 110.052 24.192C110.452 24 110.756 23.752 110.964 23.448C111.188 23.128 111.34 22.768 111.42 22.368C111.5 21.952 111.54 21.528 111.54 21.096V20.664H114.708V21.096C114.708 23.096 114.18 24.64 113.124 25.728C112.084 26.8 110.564 27.336 108.564 27.336C106.644 27.336 105.124 26.752 104.004 25.584C102.884 24.416 102.324 22.712 102.324 20.472V16.728C102.324 15.656 102.468 14.696 102.756 13.848C103.044 12.984 103.46 12.264 104.004 11.688C104.548 11.096 105.204 10.648 105.972 10.344C106.74 10.024 107.604 9.864 108.564 9.864C109.556 9.864 110.436 10.008 111.204 10.296C111.972 10.584 112.612 11 113.124 11.544C113.652 12.088 114.044 12.744 114.3 13.512C114.572 14.28 114.708 15.144 114.708 16.104V16.536H111.54V16.104C111.54 15.704 111.492 15.304 111.396 14.904C111.3 14.504 111.14 14.144 110.916 13.824C110.692 13.504 110.388 13.248 110.004 13.056C109.62 12.848 109.14 12.744 108.564 12.744C108.036 12.744 107.58 12.848 107.196 13.056C106.812 13.248 106.492 13.52 106.236 13.872C105.98 14.208 105.788 14.608 105.66 15.072C105.548 15.52 105.492 15.992 105.492 16.488V20.712C105.492 21.256 105.548 21.76 105.66 22.224C105.772 22.672 105.948 23.064 106.188 23.4C106.428 23.736 106.74 24 107.124 24.192C107.524 24.368 108.004 24.456 108.564 24.456ZM125.443 25.272C125.123 26.024 124.675 26.56 124.099 26.88C123.523 27.184 122.851 27.336 122.083 27.336C121.363 27.336 120.683 27.2 120.043 26.928C119.419 26.656 118.867 26.256 118.387 25.728C117.907 25.2 117.523 24.56 117.235 23.808C116.963 23.056 116.827 22.2 116.827 21.24V20.856C116.827 19.912 116.963 19.064 117.235 18.312C117.507 17.56 117.875 16.92 118.339 16.392C118.803 15.864 119.339 15.464 119.947 15.192C120.571 14.904 121.235 14.76 121.939 14.76C122.787 14.76 123.467 14.904 123.979 15.192C124.507 15.48 124.923 15.928 125.227 16.536H125.659V15.096H128.683V23.4C128.683 23.88 128.899 24.12 129.331 24.12H129.787V27H127.723C127.179 27 126.731 26.84 126.379 26.52C126.043 26.2 125.875 25.784 125.875 25.272H125.443ZM122.755 24.456C123.635 24.456 124.339 24.168 124.867 23.592C125.395 23 125.659 22.2 125.659 21.192V20.904C125.659 19.896 125.395 19.104 124.867 18.528C124.339 17.936 123.635 17.64 122.755 17.64C121.875 17.64 121.171 17.936 120.643 18.528C120.115 19.104 119.851 19.896 119.851 20.904V21.192C119.851 22.2 120.115 23 120.643 23.592C121.171 24.168 121.875 24.456 122.755 24.456ZM132.099 15.096H135.627V10.2H138.651V15.096H142.947V17.976H138.651V23.4C138.651 23.88 138.867 24.12 139.299 24.12H142.515V27H137.475C136.931 27 136.483 26.824 136.131 26.472C135.795 26.12 135.627 25.672 135.627 25.128V17.976H132.099V15.096ZM150.922 18.456C150.922 18.84 151.122 19.12 151.522 19.296C151.922 19.456 152.65 19.592 153.706 19.704C154.922 19.832 155.914 20.2 156.682 20.808C157.45 21.4 157.834 22.232 157.834 23.304V23.448C157.834 24.632 157.402 25.576 156.538 26.28C155.674 26.984 154.458 27.336 152.89 27.336C151.962 27.336 151.17 27.216 150.514 26.976C149.858 26.736 149.314 26.44 148.882 26.088C148.45 25.72 148.114 25.32 147.874 24.888C147.65 24.44 147.498 24.008 147.418 23.592L150.202 22.68C150.33 23.192 150.594 23.64 150.994 24.024C151.41 24.408 152.042 24.6 152.89 24.6C153.642 24.6 154.154 24.488 154.426 24.264C154.714 24.024 154.858 23.768 154.858 23.496C154.858 23.336 154.818 23.192 154.738 23.064C154.674 22.92 154.546 22.792 154.354 22.68C154.162 22.552 153.898 22.448 153.562 22.368C153.242 22.288 152.834 22.224 152.338 22.176C150.994 22.064 149.922 21.72 149.122 21.144C148.338 20.552 147.946 19.688 147.946 18.552V18.408C147.946 17.816 148.074 17.296 148.33 16.848C148.586 16.4 148.922 16.024 149.338 15.72C149.754 15.4 150.234 15.16 150.778 15C151.322 14.84 151.882 14.76 152.458 14.76C153.21 14.76 153.858 14.856 154.402 15.048C154.962 15.224 155.434 15.464 155.818 15.768C156.202 16.056 156.514 16.384 156.754 16.752C156.994 17.104 157.178 17.448 157.306 17.784L154.57 18.888C154.426 18.456 154.178 18.12 153.826 17.88C153.474 17.624 153.018 17.496 152.458 17.496C151.946 17.496 151.562 17.592 151.306 17.784C151.05 17.96 150.922 18.184 150.922 18.456Z" fill="#F2E362"/>
</svg>
